<svg width="30.000000" height="30.000000" viewBox="0 0 30 30" fill="none" xmlns="http://www.w3.org/2000/svg" xmlns:xlink="http://www.w3.org/1999/xlink">
	<desc>
			Created with Pixso.
	</desc>
	<defs/>
	<path id="Vector" d="M15 0C6.72 0 0 6.72 0 15C0 23.27 6.72 30 15 30C23.27 30 30 23.27 30 15C30 6.72 23.27 0 15 0ZM15 28.75C7.41 28.75 1.25 22.58 1.25 15C1.25 7.41 7.41 1.25 15 1.25C22.58 1.25 28.75 7.41 28.75 15C28.75 22.58 22.58 28.75 15 28.75Z" fill="#3EBA3C" fill-opacity="1.000000" fill-rule="nonzero"/>
	<path id="Vector" d="M21 10.5L13.33 18.17L9.69 14.52C9.44 14.28 9.05 14.28 8.8 14.52C8.56 14.76 8.56 15.16 8.8 15.4L12.89 19.49C13.01 19.61 13.17 19.67 13.33 19.67C13.5 19.67 13.66 19.61 13.77 19.49L21.88 11.38C22.12 11.14 22.12 10.74 21.88 10.5C21.64 10.26 21.24 10.26 21 10.5Z" fill="#3EBA3C" fill-opacity="1.000000" fill-rule="nonzero"/>
</svg>
