<svg width="35.000000" height="30.000000" viewBox="0 0 35 30" fill="none" xmlns="http://www.w3.org/2000/svg" xmlns:xlink="http://www.w3.org/1999/xlink">
	<desc>
			Created with Pixso.
	</desc>
	<defs/>
	<path id="Vector" d="M29.53 0C30.98 0 32.37 0.6 33.39 1.68C34.42 2.77 35 4.23 35 5.76L35 24.23C35 25.76 34.42 27.22 33.39 28.31C32.37 29.39 30.98 30 29.53 30L5.46 30C4.01 30 2.62 29.39 1.6 28.31C0.57 27.22 0 25.76 0 24.23L0 5.76C0 4.23 0.57 2.77 1.6 1.68C2.62 0.6 4.01 0 5.46 0L29.53 0ZM32.81 9.14L18.05 18.3C17.91 18.38 17.76 18.44 17.59 18.45C17.43 18.47 17.27 18.44 17.12 18.39L16.94 18.3L2.18 9.14L2.18 24.23C2.18 25.14 2.53 26.02 3.14 26.67C3.76 27.32 4.59 27.69 5.46 27.69L29.53 27.69C30.4 27.69 31.23 27.32 31.85 26.67C32.46 26.02 32.81 25.14 32.81 24.23L32.81 9.14ZM29.53 2.3L5.46 2.3C4.59 2.3 3.76 2.67 3.14 3.32C2.53 3.97 2.18 4.85 2.18 5.76L2.18 6.46L17.5 15.96L32.81 6.46L32.81 5.76C32.81 4.85 32.46 3.97 31.85 3.32C31.23 2.67 30.4 2.3 29.53 2.3Z" fill="#FFFFFF" fill-opacity="1.000000" fill-rule="nonzero"/>
</svg>
