<svg width="30.000000" height="30.000000" viewBox="0 0 30 30" fill="none" xmlns="http://www.w3.org/2000/svg" xmlns:xlink="http://www.w3.org/1999/xlink">
	<desc>
			Created with Pixso.
	</desc>
	<defs/>
	<path id="Vector" d="M15 0C6.72 0 0 6.72 0 15C0 23.27 6.72 30 15 30C23.27 30 30 23.27 30 15C30 6.72 23.27 0 15 0ZM15 28.75C7.41 28.75 1.25 22.58 1.25 15C1.25 7.41 7.41 1.25 15 1.25C22.58 1.25 28.75 7.41 28.75 15C28.75 22.58 22.58 28.75 15 28.75Z" fill="#BA403C" fill-opacity="1.000000" fill-rule="nonzero"/>
	<path id="Vector 55" d="M10.28 10.28L20.57 20.57" stroke="#BA403C" stroke-opacity="1.000000" stroke-width="1.000000" stroke-linecap="round"/>
	<path id="Vector 56" d="M10.28 20.57L20.57 10.28" stroke="#BA403C" stroke-opacity="1.000000" stroke-width="1.000000" stroke-linecap="round"/>
</svg>
