<svg width="21.000000" height="13.000000" viewBox="0 0 21 13" fill="none" xmlns="http://www.w3.org/2000/svg" xmlns:xlink="http://www.w3.org/1999/xlink">
	<desc>
			Created with Pixso.
	</desc>
	<defs/>
	<path id="Vector" d="M7.7 6.5C7.7 7.09 7.99 7.66 8.49 8.07C9 8.49 9.68 8.73 10.4 8.73C11.11 8.73 11.8 8.49 12.31 8.07C12.81 7.66 13.1 7.09 13.1 6.5C13.1 5.9 12.81 5.33 12.31 4.92C11.8 4.5 11.11 4.26 10.4 4.26C9.68 4.26 9 4.5 8.49 4.92C7.99 5.33 7.7 5.9 7.7 6.5ZM20.86 5.98C18.57 2 15.12 0 10.5 0C5.87 0 2.42 2 0.13 5.98C0.04 6.14 0 6.32 0 6.5C0 6.67 0.04 6.85 0.13 7.01C2.42 10.99 5.87 13 10.5 13C15.12 13 18.57 10.99 20.86 7.01C21.04 6.68 21.04 6.31 20.86 5.98ZM10.4 10C8.06 10 6.16 8.43 6.16 6.5C6.16 4.56 8.06 2.99 10.4 2.99C12.74 2.99 14.64 4.56 14.64 6.5C14.64 8.43 12.74 10 10.4 10Z" fill="#787878" fill-opacity="1.000000" fill-rule="nonzero"/>
</svg>
