<svg width="35.000000" height="35.000000" viewBox="0 0 35 35" fill="none" xmlns="http://www.w3.org/2000/svg" xmlns:xlink="http://www.w3.org/1999/xlink">
	<desc>
			Created with Pixso.
	</desc>
	<defs/>
	<path id="Vector" d="M28.43 8.75C28.43 9.33 28.2 9.88 27.79 10.29C27.38 10.7 26.83 10.93 26.25 10.93C25.66 10.93 25.11 10.7 24.7 10.29C24.29 9.88 24.06 9.33 24.06 8.75C24.06 8.16 24.29 7.61 24.7 7.2C25.11 6.79 25.66 6.56 26.25 6.56C26.83 6.56 27.38 6.79 27.79 7.2C28.2 7.61 28.43 8.16 28.43 8.75ZM22.96 0C16.24 0 10.93 5.3 10.93 12.03C10.93 12.89 11.02 13.77 11.2 14.6C11.33 15.19 11.18 15.7 10.89 15.99L0.96 25.92C0.65 26.23 0.41 26.59 0.25 26.99C0.08 27.39 0 27.82 0 28.25L0 31.71C0 32.58 0.34 33.42 0.96 34.03C1.57 34.65 2.41 35 3.28 35L7.65 35C8.52 35 9.36 34.65 9.97 34.03C10.59 33.42 10.93 32.58 10.93 31.71L10.93 30.62L13.12 30.62C13.7 30.62 14.26 30.39 14.67 29.98C15.08 29.57 15.31 29.01 15.31 28.43L15.31 26.25L17.5 26.25C18.08 26.25 18.63 26.01 19.04 25.6C19.45 25.19 19.68 24.64 19.68 24.06L19.68 23.66C20.76 23.96 21.89 24.06 22.96 24.06C29.69 24.06 35 18.76 35 12.03C35 5.3 29.69 0 22.96 0ZM13.12 12.03C13.12 6.51 17.44 2.18 22.96 2.18C28.49 2.18 32.81 6.51 32.81 12.03C32.81 17.55 28.49 21.87 22.96 21.87C21.52 21.87 20.18 21.66 19.08 21.11C18.91 21.03 18.73 20.99 18.54 21C18.35 21 18.17 21.06 18.01 21.16C17.86 21.26 17.72 21.39 17.63 21.56C17.54 21.72 17.5 21.9 17.5 22.09L17.5 24.06L15.31 24.06C14.73 24.06 14.17 24.29 13.76 24.7C13.35 25.11 13.12 25.66 13.12 26.25L13.12 28.43L10.93 28.43C10.35 28.43 9.8 28.66 9.39 29.07C8.98 29.48 8.75 30.04 8.75 30.62L8.75 31.71C8.75 32 8.63 32.28 8.42 32.49C8.22 32.69 7.94 32.81 7.65 32.81L3.28 32.81C2.99 32.81 2.71 32.69 2.5 32.49C2.3 32.28 2.18 32 2.18 31.71L2.18 28.24C2.18 27.95 2.3 27.68 2.5 27.47L12.44 17.54C13.38 16.59 13.58 15.26 13.34 14.14C13.19 13.44 13.12 12.73 13.12 12.03Z" fill="#FFFFFF" fill-opacity="1.000000" fill-rule="nonzero"/>
</svg>
