<svg width="35.000000" height="35.000000" viewBox="0 0 35 35" fill="none" xmlns="http://www.w3.org/2000/svg" xmlns:xlink="http://www.w3.org/1999/xlink">
	<desc>
			Created with Pixso.
	</desc>
	<defs/>
	<path id="Vector" d="M9.45 26.87C15.44 25.99 19.57 26.07 25.56 26.9C26 26.96 26.39 27.18 26.68 27.51C26.97 27.85 27.12 28.27 27.12 28.71C27.12 29.13 26.98 29.54 26.71 29.86C26.26 30.41 25.79 30.96 25.32 31.5L27.63 31.5C27.77 31.32 27.92 31.15 28.07 30.97C28.59 30.33 28.87 29.53 28.87 28.71C28.87 26.94 27.58 25.41 25.8 25.17C19.66 24.32 15.37 24.24 9.2 25.14C7.41 25.4 6.12 26.95 6.12 28.74C6.12 29.53 6.38 30.31 6.87 30.94C7.01 31.13 7.15 31.32 7.3 31.5L9.55 31.5C9.11 30.97 8.68 30.43 8.25 29.88C8 29.55 7.87 29.15 7.87 28.73C7.87 27.79 8.55 27 9.45 26.87ZM17.5 18.37C18.18 18.37 18.87 18.23 19.5 17.97C20.14 17.71 20.72 17.32 21.21 16.83C21.69 16.34 22.08 15.77 22.35 15.13C22.61 14.49 22.75 13.81 22.75 13.12C22.75 12.43 22.61 11.75 22.35 11.11C22.08 10.47 21.69 9.9 21.21 9.41C20.72 8.92 20.14 8.53 19.5 8.27C18.87 8.01 18.18 7.87 17.5 7.87C16.1 7.87 14.77 8.42 13.78 9.41C12.8 10.39 12.25 11.73 12.25 13.12C12.25 14.51 12.8 15.85 13.78 16.83C14.77 17.82 16.1 18.37 17.5 18.37ZM17.5 20.12C19.35 20.12 21.13 19.38 22.44 18.07C23.76 16.76 24.5 14.98 24.5 13.12C24.5 11.26 23.76 9.48 22.44 8.17C21.13 6.86 19.35 6.12 17.5 6.12C15.64 6.12 13.86 6.86 12.55 8.17C11.23 9.48 10.5 11.26 10.5 13.12C10.5 14.98 11.23 16.76 12.55 18.07C13.86 19.38 15.64 20.12 17.5 20.12Z" fill="#FFFFFF" fill-opacity="1.000000" fill-rule="evenodd"/>
	<path id="Vector" d="M17.5 33.25C26.19 33.25 33.25 26.19 33.25 17.5C33.25 8.8 26.19 1.75 17.5 1.75C8.8 1.75 1.75 8.8 1.75 17.5C1.75 26.19 8.8 33.25 17.5 33.25ZM17.5 35C27.16 35 35 27.16 35 17.5C35 7.83 27.16 0 17.5 0C7.83 0 0 7.83 0 17.5C0 27.16 7.83 35 17.5 35Z" fill="#FFFFFF" fill-opacity="1.000000" fill-rule="evenodd"/>
</svg>
